{
  "accessors": [
    {
      "bufferView": 2,
      "componentType": 5126,
      "count": 65532,
      "max": [
        5.440383434295654,
        11.978606224060059,
        4.750158309936523
      ],
      "min": [
        -5.413562297821045,
        0.056052207946777344,
        -5.0987043380737305
      ],
      "type": "VEC3"
    },
    {
      "bufferView": 2,
      "byteOffset": 786384,
      "componentType": 5126,
      "count": 65532,
      "max": [
        0.9999756217002869,
        0.9999953508377075,
        0.9999789595603943
      ],
      "min": [
        -0.9999956488609314,
        -0.9999860525131226,
        -0.999972403049469
      ],
      "type": "VEC3"
    },
    {
      "bufferView": 3,
      "componentType": 5126,
      "count": 65532,
      "max": [
        0.999984860420227,
        0.9999412894248962,
        0.9999722242355347,
        1.0
      ],
      "min": [
        -0.999991238117218,
        -0.9999732971191406,
        -0.9996122717857361,
        -1.0
      ],
      "type": "VEC4"
    },
    {
      "bufferView": 1,
      "componentType": 5126,
      "count": 65532,
      "max": [
        0.9962052702903748,
        0.9828086495399475
      ],
      "min": [
        0.015913154929876328,
        0.0015291571617126465
      ],
      "type": "VEC2"
    },
    {
      "bufferView": 1,
      "byteOffset": 524256,
      "componentType": 5126,
      "count": 65532,
      "max": [
        0.9962052702903748,
        0.9828086495399475
      ],
      "min": [
        0.015913154929876328,
        0.0015291571617126465
      ],
      "type": "VEC2"
    },
    {
      "bufferView": 1,
      "byteOffset": 1048512,
      "componentType": 5126,
      "count": 65532,
      "max": [
        0.9962052702903748,
        0.9828086495399475
      ],
      "min": [
        0.015913154929876328,
        0.0015291571617126465
      ],
      "type": "VEC2"
    },
    {
      "bufferView": 1,
      "byteOffset": 1572768,
      "componentType": 5126,
      "count": 65532,
      "max": [
        0.9962052702903748,
        0.9828086495399475
      ],
      "min": [
        0.015913154929876328,
        0.0015291571617126465
      ],
      "type": "VEC2"
    },
    {
      "bufferView": 1,
      "byteOffset": 2097024,
      "componentType": 5126,
      "count": 65532,
      "max": [
        0.9962052702903748,
        0.9828086495399475
      ],
      "min": [
        0.015913154929876328,
        0.0015291571617126465
      ],
      "type": "VEC2"
    },
    {
      "bufferView": 1,
      "byteOffset": 2621280,
      "componentType": 5126,
      "count": 65532,
      "max": [
        0.9962052702903748,
        0.9828086495399475
      ],
      "min": [
        0.015913154929876328,
        0.0015291571617126465
      ],
      "type": "VEC2"
    },
    {
      "bufferView": 1,
      "byteOffset": 3145536,
      "componentType": 5126,
      "count": 65532,
      "max": [
        0.9962052702903748,
        0.9828086495399475
      ],
      "min": [
        0.015913154929876328,
        0.0015291571617126465
      ],
      "type": "VEC2"
    },
    {
      "bufferView": 1,
      "byteOffset": 3669792,
      "componentType": 5126,
      "count": 65532,
      "max": [
        0.9962052702903748,
        0.9828086495399475
      ],
      "min": [
        0.015913154929876328,
        0.0015291571617126465
      ],
      "type": "VEC2"
    },
    {
      "bufferView": 1,
      "byteOffset": 4194048,
      "componentType": 5126,
      "count": 65532,
      "max": [
        0.9962052702903748,
        0.9828086495399475
      ],
      "min": [
        0.015913154929876328,
        0.0015291571617126465
      ],
      "type": "VEC2"
    },
    {
      "bufferView": 1,
      "byteOffset": 4718304,
      "componentType": 5126,
      "count": 65532,
      "max": [
        0.9962052702903748,
        0.9828086495399475
      ],
      "min": [
        0.015913154929876328,
        0.0015291571617126465
      ],
      "type": "VEC2"
    },
    {
      "bufferView": 0,
      "componentType": 5125,
      "count": 373668,
      "type": "SCALAR"
    },
    {
      "bufferView": 2,
      "byteOffset": 1572768,
      "componentType": 5126,
      "count": 30123,
      "max": [
        5.406643390655518,
        12.287605285644531,
        5.092597007751465
      ],
      "min": [
        -5.413562297821045,
        0.003753185272216797,
        -4.49044132232666
      ],
      "type": "VEC3"
    },
    {
      "bufferView": 2,
      "byteOffset": 1934244,
      "componentType": 5126,
      "count": 30123,
      "max": [
        0.9999995827674866,
        0.9999054074287415,
        0.9999520778656006
      ],
      "min": [
        -0.9999834299087524,
        -0.9999999403953552,
        -0.9999757409095764
      ],
      "type": "VEC3"
    },
    {
      "bufferView": 3,
      "byteOffset": 1048512,
      "componentType": 5126,
      "count": 30123,
      "max": [
        0.9999397993087769,
        0.9999833106994629,
        0.999889612197876,
        1.0
      ],
      "min": [
        -0.9995706677436829,
        -0.9999809861183167,
        -0.9999982118606567,
        -1.0
      ],
      "type": "VEC4"
    },
    {
      "bufferView": 1,
      "byteOffset": 5242560,
      "componentType": 5126,
      "count": 30123,
      "max": [
        0.9999986290931702,
        0.9613556861877441
      ],
      "min": [
        2.39349901676178e-07,
        2.39349901676178e-07
      ],
      "type": "VEC2"
    },
    {
      "bufferView": 1,
      "byteOffset": 5483544,
      "componentType": 5126,
      "count": 30123,
      "max": [
        0.9999986290931702,
        0.9613556861877441
      ],
      "min": [
        2.39349901676178e-07,
        2.39349901676178e-07
      ],
      "type": "VEC2"
    },
    {
      "bufferView": 1,
      "byteOffset": 5724528,
      "componentType": 5126,
      "count": 30123,
      "max": [
        0.9999986290931702,
        0.9613556861877441
      ],
      "min": [
        2.39349901676178e-07,
        2.39349901676178e-07
      ],
      "type": "VEC2"
    },
    {
      "bufferView": 1,
      "byteOffset": 5965512,
      "componentType": 5126,
      "count": 30123,
      "max": [
        0.9999986290931702,
        0.9613556861877441
      ],
      "min": [
        2.39349901676178e-07,
        2.39349901676178e-07
      ],
      "type": "VEC2"
    },
    {
      "bufferView": 1,
      "byteOffset": 6206496,
      "componentType": 5126,
      "count": 30123,
      "max": [
        0.9999986290931702,
        0.9613556861877441
      ],
      "min": [
        2.39349901676178e-07,
        2.39349901676178e-07
      ],
      "type": "VEC2"
    },
    {
      "bufferView": 1,
      "byteOffset": 6447480,
      "componentType": 5126,
      "count": 30123,
      "max": [
        0.9999986290931702,
        0.9613556861877441
      ],
      "min": [
        2.39349901676178e-07,
        2.39349901676178e-07
      ],
      "type": "VEC2"
    },
    {
      "bufferView": 1,
      "byteOffset": 6688464,
      "componentType": 5126,
      "count": 30123,
      "max": [
        0.9999986290931702,
        0.9613556861877441
      ],
      "min": [
        2.39349901676178e-07,
        2.39349901676178e-07
      ],
      "type": "VEC2"
    },
    {
      "bufferView": 1,
      "byteOffset": 6929448,
      "componentType": 5126,
      "count": 30123,
      "max": [
        0.9999986290931702,
        0.9613556861877441
      ],
      "min": [
        2.39349901676178e-07,
        2.39349901676178e-07
      ],
      "type": "VEC2"
    },
    {
      "bufferView": 1,
      "byteOffset": 7170432,
      "componentType": 5126,
      "count": 30123,
      "max": [
        0.9999986290931702,
        0.9613556861877441
      ],
      "min": [
        2.39349901676178e-07,
        2.39349901676178e-07
      ],
      "type": "VEC2"
    },
    {
      "bufferView": 1,
      "byteOffset": 7411416,
      "componentType": 5126,
      "count": 30123,
      "max": [
        0.9999986290931702,
        0.9613556861877441
      ],
      "min": [
        2.39349901676178e-07,
        2.39349901676178e-07
      ],
      "type": "VEC2"
    },
    {
      "bufferView": 0,
      "byteOffset": 1494672,
      "componentType": 5125,
      "count": 161850,
      "type": "SCALAR"
    }
  ],
  "asset": {
    "extras": {
      "author": "chiwei (https://sketchfab.com/chiwei2333)",
      "license": "CC-BY-4.0 (http://creativecommons.org/licenses/by/4.0/)",
      "source": "https://sketchfab.com/3d-models/noble-wine-vessel-4k-bakematerialtest-fb530fc7d0b148119de1977f9f5f333f",
      "title": "Noble Wine Vessel-4K-BakeMaterialTest"
    },
    "generator": "Sketchfab-14.64.0",
    "version": "2.0"
  },
  "bufferViews": [
    {
      "buffer": 0,
      "byteLength": 2142072,
      "name": "floatBufferViews",
      "target": 34963
    },
    {
      "buffer": 0,
      "byteLength": 7652400,
      "byteOffset": 2142072,
      "byteStride": 8,
      "name": "floatBufferViews",
      "target": 34962
    },
    {
      "buffer": 0,
      "byteLength": 2295720,
      "byteOffset": 9794472,
      "byteStride": 12,
      "name": "floatBufferViews",
      "target": 34962
    },
    {
      "buffer": 0,
      "byteLength": 1530480,
      "byteOffset": 12090192,
      "byteStride": 16,
      "name": "floatBufferViews",
      "target": 34962
    }
  ],
  "buffers": [
    {
      "byteLength": 13620672,
      "uri": "scene.bin"
    }
  ],
  "images": [
    {
      "uri": "textures/zun_t_baseColor.png"
    },
    {
      "uri": "textures/zun_t_metallicRoughness.png"
    },
    {
      "uri": "textures/zun_t_emissive.png"
    },
    {
      "uri": "textures/zun_t_normal.png"
    }
  ],
  "materials": [
    {
      "doubleSided": true,
      "emissiveFactor": [
        1.0,
        1.0,
        1.0
      ],
      "emissiveTexture": {
        "index": 2
      },
      "name": "zun_t",
      "normalTexture": {
        "index": 3
      },
      "occlusionTexture": {
        "index": 1,
        "strength": 0.5
      },
      "pbrMetallicRoughness": {
        "baseColorTexture": {
          "index": 0
        },
        "metallicRoughnessTexture": {
          "index": 1
        }
      }
    }
  ],
  "meshes": [
    {
      "name": "zun_low_zun_t_0",
      "primitives": [
        {
          "attributes": {
            "NORMAL": 1,
            "POSITION": 0,
            "TANGENT": 2,
            "TEXCOORD_0": 3,
            "TEXCOORD_1": 4,
            "TEXCOORD_2": 5,
            "TEXCOORD_3": 6,
            "TEXCOORD_4": 7,
            "TEXCOORD_5": 8,
            "TEXCOORD_6": 9,
            "TEXCOORD_7": 10,
            "TEXCOORD_8": 11,
            "TEXCOORD_9": 12
          },
          "indices": 13,
          "material": 0,
          "mode": 4
        }
      ]
    },
    {
      "name": "zun_low_zun_t_0",
      "primitives": [
        {
          "attributes": {
            "NORMAL": 15,
            "POSITION": 14,
            "TANGENT": 16,
            "TEXCOORD_0": 17,
            "TEXCOORD_1": 18,
            "TEXCOORD_2": 19,
            "TEXCOORD_3": 20,
            "TEXCOORD_4": 21,
            "TEXCOORD_5": 22,
            "TEXCOORD_6": 23,
            "TEXCOORD_7": 24,
            "TEXCOORD_8": 25,
            "TEXCOORD_9": 26
          },
          "indices": 27,
          "material": 0,
          "mode": 4
        }
      ]
    }
  ],
  "nodes": [
    {
      "children": [
        1
      ],
      "matrix": [
        1.0,
        0.0,
        0.0,
        0.0,
        0.0,
        2.220446049250313e-16,
        -1.0,
        0.0,
        0.0,
        1.0,
        2.220446049250313e-16,
        0.0,
        0.0,
        0.0,
        0.0,
        1.0
      ],
      "name": "Sketchfab_model"
    },
    {
      "children": [
        2
      ],
      "matrix": [
        0.009999999776482582,
        0.0,
        0.0,
        0.0,
        0.0,
        0.0,
        0.009999999776482582,
        0.0,
        0.0,
        -0.009999999776482582,
        0.0,
        0.0,
        0.0,
        0.0,
        0.0,
        1.0
      ],
      "name": "e74cc939e09a4ac9812e24e2ab9376fe.fbx"
    },
    {
      "children": [
        3
      ],
      "name": "RootNode"
    },
    {
      "children": [
        4
      ],
      "name": "group"
    },
    {
      "children": [
        5,
        6
      ],
      "name": "zun_low"
    },
    {
      "mesh": 0,
      "name": "zun_low_zun_t_0"
    },
    {
      "mesh": 1,
      "name": "zun_low_zun_t_0"
    }
  ],
  "samplers": [
    {
      "magFilter": 9729,
      "minFilter": 9987,
      "wrapS": 10497,
      "wrapT": 10497
    }
  ],
  "scene": 0,
  "scenes": [
    {
      "name": "Sketchfab_Scene",
      "nodes": [
        0
      ]
    }
  ],
  "textures": [
    {
      "sampler": 0,
      "source": 0
    },
    {
      "sampler": 0,
      "source": 1
    },
    {
      "sampler": 0,
      "source": 2
    },
    {
      "sampler": 0,
      "source": 3
    }
  ]
}
